<svg width="24" height="41" viewBox="0 0 24 41" fill="none" xmlns="http://www.w3.org/2000/svg">
<path d="M11.83 26L15 29.16V29C15 28.2044 14.6839 27.4413 14.1213 26.8787C13.5587 26.3161 12.7956 26 12 26H11.83ZM7.53 26.8L9.08 28.35C9.03 28.56 9 28.77 9 29C9 29.7956 9.31607 30.5587 9.87868 31.1213C10.4413 31.6839 11.2044 32 12 32C12.22 32 12.44 31.97 12.65 31.92L14.2 33.47C13.53 33.8 12.79 34 12 34C10.6739 34 9.40215 33.4732 8.46447 32.5355C7.52678 31.5979 7 30.3261 7 29C7 28.21 7.2 27.47 7.53 26.8ZM2 21.27L4.28 23.55L4.73 24C3.08 25.3 1.78 27 1 29C2.73 33.39 7 36.5 12 36.5C13.55 36.5 15.03 36.2 16.38 35.66L16.81 36.08L19.73 39L21 37.73L3.27 20M12 24C13.3261 24 14.5979 24.5268 15.5355 25.4645C16.4732 26.4021 17 27.6739 17 29C17 29.64 16.87 30.26 16.64 30.82L19.57 33.75C21.07 32.5 22.27 30.86 23 29C21.27 24.61 17 21.5 12 21.5C10.6 21.5 9.26 21.75 8 22.2L10.17 24.35C10.74 24.13 11.35 24 12 24Z" fill="#757575"/>
</svg>
