<svg width="24" height="56" viewBox="0 0 24 56" fill="none" xmlns="http://www.w3.org/2000/svg">
<path d="M6.616 46C6.17133 46 5.791 45.8417 5.475 45.525C5.159 45.2083 5.00067 44.8287 5 44.386V35.616C5 35.172 5.15833 34.792 5.475 34.476C5.79167 34.16 6.17167 34.0013 6.615 34H8V32C8 30.886 8.38833 29.941 9.165 29.165C9.941 28.3883 10.886 28 12 28C13.114 28 14.0593 28.3883 14.836 29.165C15.6127 29.9417 16.0007 30.8867 16 32V34H17.385C17.829 34 18.209 34.1583 18.525 34.475C18.841 34.7917 18.9993 35.1717 19 35.615V44.385C19 44.829 18.8417 45.209 18.525 45.525C18.2083 45.841 17.8283 45.9993 17.385 46H6.616ZM12 41.5C12.422 41.5 12.7773 41.3553 13.066 41.066C13.3553 40.7773 13.5 40.422 13.5 40C13.5 39.578 13.3553 39.2227 13.066 38.934C12.7767 38.6453 12.4213 38.5007 12 38.5C11.5787 38.4993 11.2233 38.644 10.934 38.934C10.6447 39.2227 10.5 39.578 10.5 40C10.5 40.422 10.6447 40.7773 10.934 41.066C11.2227 41.3553 11.578 41.5 12 41.5ZM9 34H15V32C15 31.1667 14.7083 30.4583 14.125 29.875C13.5417 29.2917 12.8333 29 12 29C11.1667 29 10.4583 29.2917 9.875 29.875C9.29167 30.4583 9 31.1667 9 32V34Z" fill="#757575"/>
</svg>
