<svg width="24" height="56" viewBox="0 0 24 56" fill="none" xmlns="http://www.w3.org/2000/svg">
<mask id="mask0_1_11114" style="mask-type:alpha" maskUnits="userSpaceOnUse" x="0" y="25" width="24" height="24">
<rect y="25" width="24" height="24" fill="#D9D9D9"/>
</mask>
<g mask="url(#mask0_1_11114)">
<path d="M19.95 46C17.8667 46 15.8083 45.5458 13.775 44.6375C11.7417 43.7292 9.89167 42.4417 8.225 40.775C6.55833 39.1083 5.27083 37.2583 4.3625 35.225C3.45417 33.1917 3 31.1333 3 29.05C3 28.75 3.1 28.5 3.3 28.3C3.5 28.1 3.75 28 4.05 28H8.1C8.33333 28 8.54167 28.0792 8.725 28.2375C8.90833 28.3958 9.01667 28.5833 9.05 28.8L9.7 32.3C9.73333 32.5667 9.725 32.7917 9.675 32.975C9.625 33.1583 9.53333 33.3167 9.4 33.45L6.975 35.9C7.30833 36.5167 7.70417 37.1125 8.1625 37.6875C8.62083 38.2625 9.125 38.8167 9.675 39.35C10.1917 39.8667 10.7333 40.3458 11.3 40.7875C11.8667 41.2292 12.4667 41.6333 13.1 42L15.45 39.65C15.6 39.5 15.7958 39.3875 16.0375 39.3125C16.2792 39.2375 16.5167 39.2167 16.75 39.25L20.2 39.95C20.4333 40.0167 20.625 40.1375 20.775 40.3125C20.925 40.4875 21 40.6833 21 40.9V44.95C21 45.25 20.9 45.5 20.7 45.7C20.5 45.9 20.25 46 19.95 46Z" fill="#757575"/>
</g>
</svg>
